#N canvas 4 4 1600 857 12;
#X obj 42 169 comport;
#X msg 50 22 devices;
#X text 110 21 Lister les ports dans la fenêtre Pd;
#X msg 113 87 close;
#X text 163 86 Libérer le port;
#X obj 42 196 pdchoco/slip_parse;
#X obj 42 244 oscparse;
#X obj 42 218 spigot;
#X obj 181 196 tgl 36 0 empty empty empty 0 -10 0 12 #c6ffc7 #000000 #000000 0 1;
#X floatatom 172 388 5 0 0 0 - - - 0;
#X floatatom 172 409 5 0 0 0 - - - 0;
#X floatatom 172 430 5 0 0 0 - - - 0;
#X obj 107 365 route x y z;
#X floatatom 311 391 5 0 0 0 - - - 0;
#X floatatom 311 412 5 0 0 0 - - - 0;
#X floatatom 311 433 5 0 0 0 - - - 0;
#X obj 255 366 route x y z;
#X msg 75 60 close \, baud 115200 \, open 5;
#X obj 162 265 print OSC;
#X obj 42 277 list trim;
#X text 73 387 ACCÉLÉRATEUR;
#X text 254 391 GYRO;
#X obj 637 344 nbx 5 17 -1e+37 1e+37 0 0 empty empty empty 0 -10 0 12 #fcfcfc #000000 #000000 0 256;
#X obj 858 346 nbx 5 17 -1e+37 1e+37 0 0 empty empty empty 0 -10 0 12 #fcfcfc #000000 #000000 0 256;
#X obj 1175 404 tgl 19 0 empty empty empty 0 -10 0 12 #33b3ff #000000 #000000 0 1;
#X obj 1248 404 tgl 19 0 empty empty empty 0 -10 0 12 #be5eff #000000 #000000 0 1;
#X obj 1089 404 tgl 19 0 empty empty empty 0 -10 0 12 #00ff04 #000000 #000000 0 1;
#X obj 411 359 nbx 5 17 -1e+37 1e+37 0 0 empty empty empty 0 -10 0 12 #fcfcfc #000000 #000000 0 256;
#X obj 411 295 route angle faderX faderY;
#X obj 1089 293 route key1 key2 key3;
#X obj 42 299 route accel gyro;
#X obj 858 392 vsl 19 162 0 4095 0 0 empty empty empty 0 -9 0 12 #c6ffc7 #000000 #000000 0 1;
#X obj 640 423 hsl 162 19 0 4095 0 0 empty empty empty -2 -10 0 12 #feffc6 #000000 #000000 0 1;
#X text 409 339 ANGLE;
#X text 703 343 FADERX;
#X text 926 345 FADERY;
#X text 1078 423 KEY1;
#X text 1166 424 KEY2;
#X text 1244 424 KEY3;
#X obj 632 43 pdchoco/stream_flip_flop;
#X obj 633 68 tgl 19 0 empty empty empty 0 -10 0 12 #fcfcfc #000000 #000000 0 1;
#X obj 633 94 change;
#X obj 629 127 tgl 19 0 empty empty empty 0 -10 0 12 #fcfcfc #000000 #000000 0 1;
#X obj 659 128 bng 19 250 50 0 empty empty empty 0 -10 0 12 #fcfcfc #000000 #000000;
#X text 627 24 (utilitaires);
#X obj 840 48 nbx 5 17 -1e+37 1e+37 0 0 empty empty empty 0 -10 0 12 #fcfcfc #000000 #000000 0 256;
#X obj 840 94 nbx 5 17 -1e+37 1e+37 0 0 empty empty empty 0 -10 0 12 #fcfcfc #000000 #000000 0 256;
#X obj 840 71 pdchoco/stream_smooth 0.5 0.5;
#X obj 411 408 nbx 5 17 -1e+37 1e+37 0 0 empty empty empty 0 -10 0 12 #fcfcfc #000000 #000000 0 256;
#X obj 637 365 pdchoco/stream_smooth 0.5 0.5;
#X obj 858 366 pdchoco/stream_smooth 0.5 0.5;
#X obj 1069 44 nbx 5 17 -1e+37 1e+37 0 0 empty empty empty 0 -10 0 12 #fcfcfc #000000 #000000 0 256;
#X obj 1069 96 nbx 5 17 -1e+37 1e+37 0 0 empty empty empty 0 -10 0 12 #fcfcfc #000000 #000000 0 256;
#X obj 1069 72 pdchoco/proportional 0 4095 0 1;
#X obj 39 459 pdchoco/stream_smooth 0.5 0.5;
#X obj 39 483 pdchoco/stream_smooth 0.5 0.5;
#X obj 39 506 pdchoco/stream_smooth 0.5 0.5;
#X floatatom 40 535 5 0 0 0 - - - 0;
#X floatatom 123 535 5 0 0 0 - - - 0;
#X floatatom 81 535 5 0 0 0 - - - 0;
#X obj 131 598 pdchoco/stream_smooth 0.5 0.5;
#X obj 131 622 pdchoco/stream_smooth 0.5 0.5;
#X obj 131 645 pdchoco/stream_smooth 0.5 0.5;
#X floatatom 132 674 5 0 0 0 - - - 0;
#X floatatom 215 674 5 0 0 0 - - - 0;
#X floatatom 173 674 5 0 0 0 - - - 0;
#X msg 1032 674 connect 127.0.0.1 8001;
#X msg 1032 701 disconnect;
#X obj 902 756 netsend -u -b;
#X obj 48 753 oscformat -f -f accelX;
#X obj 48 775 oscformat -f -f accelY;
#X obj 48 797 oscformat -f -f accelZ;
#X obj 211 753 oscformat -f -f gyroX;
#X obj 211 775 oscformat -f -f gyroY;
#X obj 211 797 oscformat -f -f gyroZ;
#X obj 665 393 nbx 5 17 -1e+37 1e+37 0 0 empty empty empty 0 -10 0 12 #fcfcfc #000000 #000000 0 256;
#X obj 893 399 nbx 5 17 -1e+37 1e+37 0 0 empty empty empty 0 -10 0 12 #fcfcfc #000000 #000000 0 256;
#X obj 370 775 oscformat -f -f faderX;
#X obj 370 797 oscformat -f -f faderY;
#X obj 538 753 oscformat -f i key1;
#X obj 538 775 oscformat -f i key2;
#X obj 538 797 oscformat -f i key3;
#X obj 370 753 oscformat -f -f angle;
#X obj 411 381 pdchoco/stream_smooth 0.9 0.9;
#X connect 0 0 5 0;
#X connect 1 0 0 0;
#X connect 3 0 0 0;
#X connect 5 0 7 0;
#X connect 6 0 19 0;
#X connect 7 0 6 0;
#X connect 8 0 7 1;
#X connect 9 0 54 0;
#X connect 10 0 55 0;
#X connect 11 0 56 0;
#X connect 12 0 9 0;
#X connect 12 1 10 0;
#X connect 12 2 11 0;
#X connect 13 0 60 0;
#X connect 14 0 61 0;
#X connect 15 0 62 0;
#X connect 16 0 13 0;
#X connect 16 1 14 0;
#X connect 16 2 15 0;
#X connect 17 0 0 0;
#X connect 19 0 30 0;
#X connect 19 0 28 0;
#X connect 19 0 29 0;
#X connect 22 0 49 0;
#X connect 23 0 50 0;
#X connect 24 0 80 0;
#X connect 25 0 81 0;
#X connect 26 0 79 0;
#X connect 27 0 83 0;
#X connect 28 0 27 0;
#X connect 28 1 22 0;
#X connect 28 2 23 0;
#X connect 29 0 26 0;
#X connect 29 1 24 0;
#X connect 29 2 25 0;
#X connect 30 0 12 0;
#X connect 30 1 16 0;
#X connect 39 0 40 0;
#X connect 40 0 41 0;
#X connect 41 0 42 0;
#X connect 41 0 43 0;
#X connect 45 0 47 0;
#X connect 47 0 46 0;
#X connect 48 0 82 0;
#X connect 49 0 32 0;
#X connect 49 0 75 0;
#X connect 50 0 31 0;
#X connect 50 0 76 0;
#X connect 51 0 53 0;
#X connect 53 0 52 0;
#X connect 54 0 57 0;
#X connect 55 0 58 0;
#X connect 56 0 59 0;
#X connect 57 0 69 0;
#X connect 58 0 71 0;
#X connect 59 0 70 0;
#X connect 60 0 63 0;
#X connect 61 0 64 0;
#X connect 62 0 65 0;
#X connect 63 0 72 0;
#X connect 64 0 74 0;
#X connect 65 0 73 0;
#X connect 66 0 68 0;
#X connect 67 0 68 0;
#X connect 69 0 68 0;
#X connect 70 0 68 0;
#X connect 71 0 68 0;
#X connect 72 0 68 0;
#X connect 73 0 68 0;
#X connect 74 0 68 0;
#X connect 75 0 77 0;
#X connect 76 0 78 0;
#X connect 77 0 68 0;
#X connect 78 0 68 0;
#X connect 79 0 68 0;
#X connect 80 0 68 0;
#X connect 81 0 68 0;
#X connect 82 0 68 0;
#X connect 83 0 48 0;
