#N canvas 328 93 1097 545 12;
#X obj 42 169 comport;
#X msg 50 22 devices;
#X text 110 22 Lister les ports dans la fenêtre Pd;
#X msg 113 87 close;
#X text 163 88 Libérer le port;
#X obj 42 225 pdchoco/slip_parse;
#X obj 35 302 oscparse;
#X text 176 226 Traiter les données SLIP;
#X obj 43 261 spigot;
#X obj 134 264 tgl 36 0 empty empty empty 0 -10 0 12 #c6ffc7 #000000 #000000 0 1;
#X floatatom 34 462 5 0 0 0 - - - 0;
#X floatatom 33 486 5 0 0 0 - - - 0;
#X floatatom 31 511 5 0 0 0 - - - 0;
#X obj 34 440 route x y z;
#X floatatom 157 461 5 0 0 0 - - - 0;
#X floatatom 157 483 5 0 0 0 - - - 0;
#X floatatom 157 505 5 0 0 0 - - - 0;
#X obj 157 438 route x y z;
#X msg 75 60 close \, baud 115200 \, open 5;
#X obj 136 332 print OSC;
#X obj 35 333 list trim;
#X text 30 420 ACCÉLÉRATEUR;
#X text 152 417 GYRO;
#X obj 488 445 nbx 5 17 -1e+37 1e+37 0 0 empty empty empty 0 -10 0 12 #fcfcfc #000000 #000000 0 256;
#X obj 594 445 nbx 5 17 -1e+37 1e+37 0 0 empty empty empty 0 -10 0 12 #fcfcfc #000000 #000000 0 256;
#X obj 866 450 tgl 19 0 empty empty empty 0 -10 0 12 #33b3ff #000000 #000000 0 1;
#X obj 939 450 tgl 19 0 empty empty empty 0 -10 0 12 #be5eff #000000 #000000 0 1;
#X obj 780 448 tgl 19 0 empty empty empty 0 -10 0 12 #00ff04 #000000 #000000 0 1;
#X obj 390 446 nbx 5 17 -1e+37 1e+37 0 0 empty empty empty 0 -10 0 12 #fcfcfc #000000 #000000 0 256;
#X obj 391 368 route angle faderX faderY;
#X obj 780 365 route key1 key2 key3;
#X obj 34 364 route accel gyro;
#X obj 661 478 vsl 19 162 0 4095 0 0 empty empty empty 0 -9 0 12 #c6ffc7 #000000 #000000 0 1;
#X obj 489 479 hsl 162 19 0 4095 0 0 empty empty empty -2 -10 0 12 #feffc6 #000000 #000000 0 1;
#X connect 0 0 5 0;
#X connect 1 0 0 0;
#X connect 3 0 0 0;
#X connect 5 0 8 0;
#X connect 6 0 19 0;
#X connect 6 0 20 0;
#X connect 8 0 6 0;
#X connect 9 0 8 1;
#X connect 13 0 10 0;
#X connect 13 1 11 0;
#X connect 13 2 12 0;
#X connect 17 0 14 0;
#X connect 17 1 15 0;
#X connect 17 2 16 0;
#X connect 18 0 0 0;
#X connect 20 0 31 0;
#X connect 20 0 29 0;
#X connect 20 0 30 0;
#X connect 23 0 33 0;
#X connect 24 0 32 0;
#X connect 29 0 28 0;
#X connect 29 1 23 0;
#X connect 29 2 24 0;
#X connect 30 0 27 0;
#X connect 30 1 25 0;
#X connect 30 2 26 0;
#X connect 31 0 13 0;
#X connect 31 1 17 0;
